<?xml version="1.0" encoding="UTF-8"?>
<svg width="256" height="256" viewBox="0 0 256 256" xmlns="http://www.w3.org/2000/svg">
  <defs>
    <linearGradient id="bgGradient" x1="0%" y1="0%" x2="100%" y2="100%">
      <stop offset="0%" stop-color="#667eea" stop-opacity="1" />
      <stop offset="100%" stop-color="#764ba2" stop-opacity="1" />
    </linearGradient>
  </defs>
  
  <rect width="256" height="256" rx="48" fill="url(#bgGradient)"/>
  
  <rect x="50" y="40" width="156" height="176" rx="12" fill="#ffffff" opacity="0.08"/>
  <rect x="54" y="44" width="148" height="168" rx="10" fill="none" stroke="#ffffff" stroke-width="2" opacity="0.15"/>
  
  <rect x="54" y="44" width="148" height="56" rx="10" fill="#ffffff" opacity="0.12"/>
  
  <line x1="70" y1="58" x2="105" y2="58" stroke="#ffffff" stroke-width="4" stroke-linecap="round" opacity="0.7"/>
  
  <rect x="70" y="72" width="50" height="5" rx="2.5" fill="#ffffff" opacity="0.5"/>
  <rect x="125" y="72" width="55" height="5" rx="2.5" fill="#ffffff" opacity="0.65"/>
  
  <rect x="70" y="84" width="40" height="5" rx="2.5" fill="#ffffff" opacity="0.5"/>
  <rect x="115" y="84" width="65" height="5" rx="2.5" fill="#ffffff" opacity="0.65"/>
  
  <line x1="70" y1="96" x2="105" y2="96" stroke="#ffffff" stroke-width="4" stroke-linecap="round" opacity="0.7"/>
  
  <rect x="65" y="120" width="126" height="28" rx="6" fill="#28a745" opacity="0.9"/>
  
  <rect x="65" y="156" width="126" height="28" rx="6" fill="#e6a700" opacity="0.9"/>
  
  <rect x="65" y="192" width="126" height="28" rx="6" fill="#dc3545" opacity="0.9"/>
  
  <circle cx="200" cy="168" r="24" fill="#ffffff" opacity="0.95"/>
  <circle cx="200" cy="168" r="22" fill="#ffffff"/>
  
  <path d="M 191 168 L 205 168 M 201 163 L 206 168 L 201 173" stroke="#764ba2" stroke-width="3.5" fill="none" stroke-linecap="round" stroke-linejoin="round"/>
  
  <g font-family="monospace" font-size="20" font-weight="bold" fill="#ffffff">
    <text x="78" y="141">{{var}}</text>
    <text x="78" y="177">{{opt}}</text>
    <text x="78" y="213">{{new}}</text>
  </g>
</svg>
